<?xml version="1.0" encoding="utf-8"?>
<!-- Generator: Adobe Illustrator 24.0.0, SVG Export Plug-In . SVG Version: 6.00 Build 0)  -->
<svg version="1.1" xmlns="http://www.w3.org/2000/svg" xmlns:xlink="http://www.w3.org/1999/xlink" x="0px" y="0px"
	 viewBox="0 0 256 256" enable-background="new 0 0 256 256" xml:space="preserve">
<g id="Layer_2" display="none">
	<rect x="-764" y="-1128" display="inline" fill="#FFFFFF" width="1786" height="5896"/>
</g>
<g id="Layer_1">
	<g>
		<path fill="#7D7B79" d="M230,40.086H26c-5.523,0-10,4.477-10,10v188c0,5.523,4.477,10,10,10h204c5.523,0,10-4.477,10-10v-188
			C240,44.563,235.523,40.086,230,40.086z"/>
		<path fill="#72C2E9" d="M16,88.086v150c0,5.523,4.477,10,10,10h204c5.523,0,10-4.477,10-10v-150H16z"/>
		<path fill="#C5E5FE" d="M230,240.586H43c-1.381,0-2.5-1.119-2.5-2.5s1.119-2.5,2.5-2.5h184.5v-137.5c0-1.381,1.119-2.5,2.5-2.5
			s2.5,1.119,2.5,2.5v140C232.5,239.467,231.381,240.586,230,240.586z M33,240.586h-7c-1.381,0-2.5-1.119-2.5-2.5s1.119-2.5,2.5-2.5
			h7c1.381,0,2.5,1.119,2.5,2.5S34.381,240.586,33,240.586z"/>
		<path fill="#EFEFEF" d="M48,216.086L48,216.086c-4.418,0-8-3.582-8-8v0c0-4.418,3.582-8,8-8h0c4.418,0,8,3.582,8,8v0
			C56,212.505,52.418,216.086,48,216.086z"/>
		<path fill="#EFEFEF" d="M80,200.086L80,200.086c-4.418,0-8-3.582-8-8v0c0-4.418,3.582-8,8-8h0c4.418,0,8,3.582,8,8v0
			C88,196.505,84.418,200.086,80,200.086z"/>
		<path fill="#EFEFEF" d="M176,200.086L176,200.086c-4.418,0-8-3.582-8-8v0c0-4.418,3.582-8,8-8h0c4.418,0,8,3.582,8,8v0
			C184,196.505,180.418,200.086,176,200.086z"/>
		<path fill="#EFEFEF" d="M144,216.086L144,216.086c-4.418,0-8-3.582-8-8v0c0-4.418,3.582-8,8-8h0c4.418,0,8,3.582,8,8v0
			C152,212.505,148.418,216.086,144,216.086z"/>
		<path fill="#EFEFEF" d="M208,216.086L208,216.086c-4.418,0-8-3.582-8-8v0c0-4.418,3.582-8,8-8h0c4.418,0,8,3.582,8,8v0
			C216,212.505,212.418,216.086,208,216.086z"/>
		<path fill="#EFEFEF" d="M112,216.086L112,216.086c-4.418,0-8-3.582-8-8v0c0-4.418,3.582-8,8-8h0c4.418,0,8,3.582,8,8v0
			C120,212.505,116.418,216.086,112,216.086z"/>
		<path fill="#7D7B79" d="M211,144.086H45c-2.761,0-5,2.239-5,5v6c0,2.761,2.239,5,5,5h166c2.761,0,5-2.239,5-5v-6
			C216,146.325,213.761,144.086,211,144.086z"/>
		<circle fill="#FC5D3D" cx="112" cy="120.086" r="8"/>
		<circle fill="#FC5D3D" cx="144" cy="120.086" r="8"/>
		<circle fill="#FC5D3D" cx="176" cy="120.086" r="8"/>
		<circle fill="#FC5D3D" cx="208" cy="120.086" r="8"/>
		<path fill="#FC5D3D" d="M59,128.086H45c-2.761,0-5-2.239-5-5v-6c0-2.761,2.239-5,5-5h14c2.761,0,5,2.239,5,5v6
			C64,125.848,61.761,128.086,59,128.086z"/>
		<path fill="#F0C020" d="M192,88.086H64v-27c0-2.761,2.239-5,5-5h118c2.761,0,5,2.239,5,5V88.086z"/>
		<path fill="#72C2E9" d="M64,40.086H32v-11c0-2.761,2.239-5,5-5h22c2.761,0,5,2.239,5,5V40.086z"/>
		<rect x="40" y="8.086" fill="#7D7B79" width="16" height="16"/>
		<path fill="#72C2E9" d="M112,40.086H80v-11c0-2.761,2.239-5,5-5h22c2.761,0,5,2.239,5,5V40.086z"/>
		<rect x="88" y="8.086" fill="#7D7B79" width="16" height="16"/>
		<path fill="#72C2E9" d="M224,40.086h-32v-11c0-2.761,2.239-5,5-5h22c2.761,0,5,2.239,5,5V40.086z"/>
		<rect x="200" y="8.086" fill="#7D7B79" width="16" height="16"/>
		<circle fill="#F0C020" cx="40" cy="64.086" r="8"/>
		<circle fill="#F0C020" cx="216" cy="64.086" r="8"/>
		<g>
			<path d="M80,226.586c1.381,0,2.5-1.119,2.5-2.5v-21.813c4.584-1.126,8-5.26,8-10.187s-3.416-9.061-8-10.187v-5.813
				c0-1.381-1.119-2.5-2.5-2.5s-2.5,1.119-2.5,2.5v5.813c-4.584,1.126-8,5.26-8,10.187s3.416,9.061,8,10.187v21.813
				C77.5,225.467,78.619,226.586,80,226.586z M82.5,187.193c1.778,0.912,3,2.761,3,4.893s-1.222,3.98-3,4.893V187.193z
				 M74.5,192.086c0-2.132,1.222-3.98,3-4.893v9.786C75.722,196.067,74.5,194.218,74.5,192.086z"/>
			<path d="M112,226.586c1.381,0,2.5-1.119,2.5-2.5v-5.813c4.584-1.126,8-5.26,8-10.187s-3.416-9.061-8-10.187v-21.813
				c0-1.381-1.119-2.5-2.5-2.5s-2.5,1.119-2.5,2.5V197.9c-4.584,1.126-8,5.26-8,10.187s3.416,9.061,8,10.187v5.813
				C109.5,225.467,110.619,226.586,112,226.586z M114.5,203.193c1.778,0.912,3,2.761,3,4.893s-1.222,3.98-3,4.893V203.193z
				 M106.5,208.086c0-2.132,1.222-3.98,3-4.893v9.786C107.722,212.067,106.5,210.218,106.5,208.086z"/>
			<path d="M144,226.586c1.381,0,2.5-1.119,2.5-2.5v-5.813c4.585-1.126,8-5.26,8-10.187s-3.415-9.061-8-10.187v-21.813
				c0-1.381-1.119-2.5-2.5-2.5s-2.5,1.119-2.5,2.5v21.813c-4.585,1.126-8,5.26-8,10.187s3.415,9.061,8,10.187v5.813
				C141.5,225.467,142.619,226.586,144,226.586z M146.5,203.193c1.778,0.912,3,2.761,3,4.893s-1.222,3.98-3,4.893V203.193z
				 M138.5,208.086c0-2.132,1.222-3.98,3-4.893v9.786C139.722,212.067,138.5,210.218,138.5,208.086z"/>
			<path d="M176,226.586c1.381,0,2.5-1.119,2.5-2.5v-21.813c4.585-1.126,8-5.26,8-10.187s-3.415-9.061-8-10.187v-5.813
				c0-1.381-1.119-2.5-2.5-2.5s-2.5,1.119-2.5,2.5v5.813c-4.585,1.126-8,5.26-8,10.187s3.415,9.061,8,10.187v21.813
				C173.5,225.467,174.619,226.586,176,226.586z M178.5,187.193c1.778,0.912,3,2.761,3,4.893s-1.222,3.98-3,4.893V187.193z
				 M170.5,192.086c0-2.132,1.222-3.98,3-4.893v9.786C171.722,196.067,170.5,194.218,170.5,192.086z"/>
			<path d="M208,226.586c1.381,0,2.5-1.119,2.5-2.5v-5.813c4.585-1.126,8-5.26,8-10.187s-3.415-9.061-8-10.187v-21.813
				c0-1.381-1.119-2.5-2.5-2.5s-2.5,1.119-2.5,2.5v21.813c-4.585,1.126-8,5.26-8,10.187s3.415,9.061,8,10.187v5.813
				C205.5,225.467,206.619,226.586,208,226.586z M210.5,203.193c1.778,0.912,3,2.761,3,4.893s-1.222,3.98-3,4.893V203.193z
				 M202.5,208.086c0-2.132,1.222-3.98,3-4.893v9.786C203.722,212.067,202.5,210.218,202.5,208.086z"/>
			<path d="M80,114.586h8c1.381,0,2.5-1.119,2.5-2.5s-1.119-2.5-2.5-2.5h-8c-1.381,0-2.5,1.119-2.5,2.5S78.619,114.586,80,114.586z"
				/>
			<path d="M80,122.586h8c1.381,0,2.5-1.119,2.5-2.5s-1.119-2.5-2.5-2.5h-8c-1.381,0-2.5,1.119-2.5,2.5S78.619,122.586,80,122.586z"
				/>
			<path d="M80,130.586h8c1.381,0,2.5-1.119,2.5-2.5s-1.119-2.5-2.5-2.5h-8c-1.381,0-2.5,1.119-2.5,2.5S78.619,130.586,80,130.586z"
				/>
			<path d="M230,37.586h-3.5v-8.5c0-4.136-3.364-7.5-7.5-7.5h-0.5v-13.5c0-1.381-1.119-2.5-2.5-2.5s-2.5,1.119-2.5,2.5v13.5h-11
				v-13.5c0-1.381-1.119-2.5-2.5-2.5s-2.5,1.119-2.5,2.5v13.5H197c-4.136,0-7.5,3.364-7.5,7.5v8.5h-75v-8.5
				c0-4.136-3.364-7.5-7.5-7.5h-0.5v-13.5c0-1.381-1.119-2.5-2.5-2.5s-2.5,1.119-2.5,2.5v13.5h-11v-13.5c0-1.381-1.119-2.5-2.5-2.5
				s-2.5,1.119-2.5,2.5v13.5H85c-4.136,0-7.5,3.364-7.5,7.5v8.5h-11v-8.5c0-4.136-3.364-7.5-7.5-7.5h-0.5v-13.5
				c0-1.381-1.119-2.5-2.5-2.5s-2.5,1.119-2.5,2.5v13.5h-11v-13.5c0-1.381-1.119-2.5-2.5-2.5s-2.5,1.119-2.5,2.5v13.5H37
				c-4.136,0-7.5,3.364-7.5,7.5v8.5H26c-6.89,0-12.5,5.61-12.5,12.5v71.43c0,1.38,1.12,2.5,2.5,2.5c1.38,0,2.5-1.12,2.5-2.5
				c0-0.01,0-0.01,0-0.02v-30.91c4.627,0,214.391,0,219,0v147.5c-0.01,4.13-3.37,7.49-7.5,7.5H26c-4.13-0.01-7.49-3.37-7.5-7.5
				v-96.57c0-1.38-1.12-2.5-2.5-2.5c-1.38,0-2.5,1.12-2.5,2.5v96.57c0,6.89,5.61,12.5,12.5,12.5h204c6.89,0,12.5-5.61,12.5-12.5
				v-188C242.5,43.196,236.89,37.586,230,37.586z M194.5,29.086c0-1.378,1.121-2.5,2.5-2.5c8.13,0,14.259,0,22,0
				c1.379,0,2.5,1.122,2.5,2.5v8.5h-27V29.086z M82.5,29.086c0-1.378,1.122-2.5,2.5-2.5c8.13,0,14.259,0,22,0
				c1.378,0,2.5,1.122,2.5,2.5v8.5h-27V29.086z M34.5,29.086c0-1.378,1.122-2.5,2.5-2.5c8.13,0,14.259,0,22,0
				c1.378,0,2.5,1.122,2.5,2.5v8.5h-27V29.086z M189.5,85.586h-123v-24.5c0-1.378,1.122-2.5,2.5-2.5h118c1.379,0,2.5,1.122,2.5,2.5
				V85.586z M237.5,85.586h-43v-24.5c0-4.136-3.364-7.5-7.5-7.5H69c-4.136,0-7.5,3.364-7.5,7.5v24.5h-43v-35.5
				c0.01-4.13,3.37-7.49,7.5-7.5c4.001,0,202.751,0,204,0c4.13,0.01,7.49,3.37,7.5,7.5V85.586z"/>
			<circle cx="16" cy="131.516" r="2.5"/>
			<path d="M45.5,218.273v5.813c0,1.381,1.119,2.5,2.5,2.5s2.5-1.119,2.5-2.5v-5.813c4.584-1.126,8-5.26,8-10.187
				s-3.416-9.061-8-10.187v-21.813c0-1.381-1.119-2.5-2.5-2.5s-2.5,1.119-2.5,2.5V197.9c-4.584,1.126-8,5.26-8,10.187
				S40.916,217.147,45.5,218.273z M50.5,203.193c1.778,0.912,3,2.761,3,4.893s-1.222,3.98-3,4.893V203.193z M45.5,203.193v9.786
				c-1.778-0.912-3-2.761-3-4.893S43.722,204.106,45.5,203.193z"/>
			<path d="M122.5,120.086c0-5.79-4.71-10.5-10.5-10.5s-10.5,4.71-10.5,10.5s4.71,10.5,10.5,10.5S122.5,125.876,122.5,120.086z
				 M106.5,120.086c0-3.033,2.467-5.5,5.5-5.5s5.5,2.467,5.5,5.5s-2.467,5.5-5.5,5.5S106.5,123.119,106.5,120.086z"/>
			<path d="M154.5,120.086c0-5.79-4.71-10.5-10.5-10.5s-10.5,4.71-10.5,10.5s4.71,10.5,10.5,10.5S154.5,125.876,154.5,120.086z
				 M138.5,120.086c0-3.033,2.468-5.5,5.5-5.5s5.5,2.467,5.5,5.5s-2.468,5.5-5.5,5.5S138.5,123.119,138.5,120.086z"/>
			<path d="M186.5,120.086c0-5.79-4.71-10.5-10.5-10.5s-10.5,4.71-10.5,10.5s4.71,10.5,10.5,10.5S186.5,125.876,186.5,120.086z
				 M170.5,120.086c0-3.033,2.468-5.5,5.5-5.5s5.5,2.467,5.5,5.5s-2.468,5.5-5.5,5.5S170.5,123.119,170.5,120.086z"/>
			<path d="M218.5,120.086c0-5.79-4.71-10.5-10.5-10.5s-10.5,4.71-10.5,10.5s4.71,10.5,10.5,10.5S218.5,125.876,218.5,120.086z
				 M202.5,120.086c0-3.033,2.468-5.5,5.5-5.5s5.5,2.467,5.5,5.5s-2.468,5.5-5.5,5.5S202.5,123.119,202.5,120.086z"/>
			<path d="M45,130.586h14c4.136,0,7.5-3.364,7.5-7.5v-6c0-4.136-3.364-7.5-7.5-7.5H45c-4.136,0-7.5,3.364-7.5,7.5v6
				C37.5,127.222,40.864,130.586,45,130.586z M42.5,117.086c0-1.378,1.122-2.5,2.5-2.5h14c1.378,0,2.5,1.122,2.5,2.5v6
				c0,1.378-1.122,2.5-2.5,2.5H45c-1.378,0-2.5-1.122-2.5-2.5V117.086z"/>
			<path d="M37.5,155.086c0,4.136,3.364,7.5,7.5,7.5h166c4.136,0,7.5-3.364,7.5-7.5v-6c0-4.136-3.364-7.5-7.5-7.5H45
				c-4.136,0-7.5,3.364-7.5,7.5V155.086z M42.5,149.086c0-1.378,1.122-2.5,2.5-2.5h166c1.379,0,2.5,1.122,2.5,2.5v6
				c0,1.378-1.121,2.5-2.5,2.5H45c-1.378,0-2.5-1.122-2.5-2.5V149.086z"/>
			<circle cx="157" cy="72.086" r="2.5"/>
			<path d="M147,69.586H80c-1.38,0-2.5,1.12-2.5,2.5c0,1.38,1.12,2.5,2.5,2.5h67c1.38,0,2.5-1.12,2.5-2.5
				C149.5,70.706,148.38,69.586,147,69.586z"/>
			<path d="M176,69.586h-9c-1.38,0-2.5,1.12-2.5,2.5c0,1.38,1.12,2.5,2.5,2.5h9c1.38,0,2.5-1.12,2.5-2.5
				C178.5,70.706,177.38,69.586,176,69.586z"/>
			<path d="M40,53.586c-5.79,0-10.5,4.71-10.5,10.5s4.71,10.5,10.5,10.5s10.5-4.71,10.5-10.5S45.79,53.586,40,53.586z M40,69.586
				c-3.033,0-5.5-2.467-5.5-5.5s2.467-5.5,5.5-5.5s5.5,2.467,5.5,5.5S43.033,69.586,40,69.586z"/>
			<path d="M216,53.586c-5.79,0-10.5,4.71-10.5,10.5s4.71,10.5,10.5,10.5s10.5-4.71,10.5-10.5S221.79,53.586,216,53.586z
				 M216,69.586c-3.032,0-5.5-2.467-5.5-5.5s2.468-5.5,5.5-5.5s5.5,2.467,5.5,5.5S219.032,69.586,216,69.586z"/>
		</g>
	</g>
</g>
</svg>
